<?xml version="1.0" encoding="UTF-8" standalone="no"?>
<svg
   xmlns:dc="http://purl.org/dc/elements/1.1/"
   xmlns:cc="http://creativecommons.org/ns#"
   xmlns:rdf="http://www.w3.org/1999/02/22-rdf-syntax-ns#"
   xmlns:svg="http://www.w3.org/2000/svg"
   xmlns="http://www.w3.org/2000/svg"
   xmlns:sodipodi="http://sodipodi.sourceforge.net/DTD/sodipodi-0.dtd"
   xmlns:inkscape="http://www.inkscape.org/namespaces/inkscape"
   width="600"
   height="400"
   viewBox="0 0 158.75 105.83333"
   version="1.1"
   id="svg8"
   sodipodi:docname="breaking-chain.svg"
   inkscape:version="1.0.1 (3bc2e813f5, 2020-09-07)">
  <sodipodi:namedview
     pagecolor="#ffffff"
     bordercolor="#666666"
     borderopacity="1"
     objecttolerance="10"
     gridtolerance="10"
     guidetolerance="10"
     inkscape:pageopacity="0"
     inkscape:pageshadow="2"
     inkscape:window-width="1896"
     inkscape:window-height="996"
     id="namedview45"
     showgrid="false"
     inkscape:zoom="0.95812969"
     inkscape:cx="460.00848"
     inkscape:cy="308.90613"
     inkscape:window-x="10"
     inkscape:window-y="44"
     inkscape:window-maximized="1"
     inkscape:current-layer="svg8" />
  <defs
     id="defs2" />
  <metadata
     id="metadata5">
    <rdf:RDF>
      <cc:Work
         rdf:about="">
        <dc:format>image/svg+xml</dc:format>
        <dc:type
           rdf:resource="http://purl.org/dc/dcmitype/StillImage" />
        <dc:title></dc:title>
      </cc:Work>
    </rdf:RDF>
  </metadata>
  <g
     id="g1109"
     transform="translate(0,-26.458331)">
    <path
       id="path887"
       style="color:#000000;font-style:normal;font-variant:normal;font-weight:normal;font-stretch:normal;font-size:medium;line-height:normal;font-family:sans-serif;font-variant-ligatures:normal;font-variant-position:normal;font-variant-caps:normal;font-variant-numeric:normal;font-variant-alternates:normal;font-variant-east-asian:normal;font-feature-settings:normal;font-variation-settings:normal;text-indent:0;text-align:start;text-decoration:none;text-decoration-line:none;text-decoration-style:solid;text-decoration-color:#000000;letter-spacing:normal;word-spacing:normal;text-transform:none;writing-mode:lr-tb;direction:ltr;text-orientation:mixed;dominant-baseline:auto;baseline-shift:baseline;text-anchor:start;white-space:normal;shape-padding:0;shape-margin:0;inline-size:0;clip-rule:nonzero;display:inline;overflow:visible;visibility:visible;isolation:auto;mix-blend-mode:normal;color-interpolation:sRGB;color-interpolation-filters:linearRGB;solid-color:#000000;solid-opacity:1;vector-effect:none;fill:#4d4d4d;fill-opacity:1;fill-rule:nonzero;stroke:none;stroke-width:50.0001;stroke-linecap:butt;stroke-linejoin:round;stroke-miterlimit:4;stroke-dasharray:none;stroke-dashoffset:0;stroke-opacity:1;color-rendering:auto;image-rendering:auto;shape-rendering:auto;text-rendering:auto;enable-background:accumulate;stop-color:#000000"
       d="m 281.88086,192.01953 -40.20313,3.14649 c -31.98624,2.50304 -56.17686,30.80669 -53.67382,62.79296 0.4284,5.47468 1.63278,10.71104 3.46484,15.63282 L 220.625,246.86914 c 2.59878,-10.76647 11.70295,-18.83052 23.55273,-19.75781 l 46.44922,-3.63477 4.09375,-5.27539 -14.31445,-9 10.19141,-7.83984 z m 10.86133,84.19141 -44.44922,3.47851 c -2.17309,0.17006 -4.29034,0.0842 -6.32813,-0.22656 l -25.96093,23.79688 c 10.11774,6.17214 22.16048,9.36322 34.78906,8.375 l 40.89258,-3.19922 7.70507,-12.28516 -12.99804,-5.51367 20.47656,-8.58008 z"
       transform="scale(0.26458333)" />
    <path
       id="path882"
       style="color:#000000;font-style:normal;font-variant:normal;font-weight:normal;font-stretch:normal;font-size:medium;line-height:normal;font-family:sans-serif;font-variant-ligatures:normal;font-variant-position:normal;font-variant-caps:normal;font-variant-numeric:normal;font-variant-alternates:normal;font-variant-east-asian:normal;font-feature-settings:normal;font-variation-settings:normal;text-indent:0;text-align:start;text-decoration:none;text-decoration-line:none;text-decoration-style:solid;text-decoration-color:#000000;letter-spacing:normal;word-spacing:normal;text-transform:none;writing-mode:lr-tb;direction:ltr;text-orientation:mixed;dominant-baseline:auto;baseline-shift:baseline;text-anchor:start;white-space:normal;shape-padding:0;shape-margin:0;inline-size:0;clip-rule:nonzero;display:inline;overflow:visible;visibility:visible;isolation:auto;mix-blend-mode:normal;color-interpolation:sRGB;color-interpolation-filters:linearRGB;solid-color:#000000;solid-opacity:1;vector-effect:none;fill:#4d4d4d;fill-opacity:1;fill-rule:nonzero;stroke:none;stroke-width:50.0001;stroke-linecap:butt;stroke-linejoin:round;stroke-miterlimit:4;stroke-dasharray:none;stroke-dashoffset:0;stroke-opacity:1;color-rendering:auto;image-rendering:auto;shape-rendering:auto;text-rendering:auto;enable-background:accumulate;stop-color:#000000"
       d="m 309.13281,191.46094 7.08203,10.63476 -11.33007,6.08008 12.66211,11.20703 -4.89844,4.53907 38.05468,3.24804 c 11.5041,0.98197 20.37151,8.67934 23.1836,19.00391 l 29.9414,25.8164 c 1.45615,-4.31261 2.43291,-8.85452 2.83594,-13.57617 2.72867,-31.96781 -21.2685,-60.44314 -53.23633,-63.17187 z m -2.96679,84.83789 12.99023,8.0625 -21.59961,5.14062 11.92969,7.55078 -9.60156,10.8711 43.60742,3.7207 c 13.38959,1.14291 26.15023,-2.42259 36.67773,-9.2793 l -26.66406,-22.98828 c -2.33237,0.42577 -4.77468,0.55447 -7.28906,0.33985 z"
       transform="scale(0.26458333)" />
    <path
       id="path945"
       style="color:#000000;font-style:normal;font-variant:normal;font-weight:normal;font-stretch:normal;font-size:medium;line-height:normal;font-family:sans-serif;font-variant-ligatures:normal;font-variant-position:normal;font-variant-caps:normal;font-variant-numeric:normal;font-variant-alternates:normal;font-variant-east-asian:normal;font-feature-settings:normal;font-variation-settings:normal;text-indent:0;text-align:start;text-decoration:none;text-decoration-line:none;text-decoration-style:solid;text-decoration-color:#000000;letter-spacing:normal;word-spacing:normal;text-transform:none;writing-mode:lr-tb;direction:ltr;text-orientation:mixed;dominant-baseline:auto;baseline-shift:baseline;text-anchor:start;white-space:normal;shape-padding:0;shape-margin:0;inline-size:0;clip-rule:nonzero;display:inline;overflow:visible;visibility:visible;isolation:auto;mix-blend-mode:normal;color-interpolation:sRGB;color-interpolation-filters:linearRGB;solid-color:#000000;solid-opacity:1;vector-effect:none;fill:#4d4d4d;fill-opacity:1;fill-rule:nonzero;stroke:none;stroke-width:50.0001;stroke-linecap:butt;stroke-linejoin:round;stroke-miterlimit:4;stroke-dasharray:none;stroke-dashoffset:0;stroke-opacity:1;color-rendering:auto;image-rendering:auto;shape-rendering:auto;text-rendering:auto;enable-background:accumulate;stop-color:#000000"
       d="m 120.54688,306.10742 c -14.04645,0.0549 -28.110598,5.09956 -39.197271,15.26172 l -62.5,57.28711 c -23.6515639,21.67929 -25.2691179,58.87379 -3.589843,82.52539 21.679258,23.65153 58.877736,25.275 82.529296,3.5957 l 62.499998,-57.28711 c 18.69111,-17.13244 23.59549,-43.95102 14.14063,-66.12304 l -27.13672,24.875 c -0.44885,6.45655 -3.35096,12.7621 -8.65625,17.625 L 76.138672,441.1543 c -10.972914,10.05785 -27.199934,9.34986 -37.257813,-1.62305 -10.057895,-10.97291 -9.351818,-27.19602 1.621094,-37.25391 l 62.499997,-57.28711 c 5.3049,-4.86252 11.83681,-7.2046 18.30664,-7.09179 l 27.14453,-24.87891 c -8.65209,-4.61915 -18.26996,-6.94978 -27.90624,-6.91211 z"
       transform="scale(0.26458333)" />
    <path
       id="path955"
       style="color:#000000;font-style:normal;font-variant:normal;font-weight:normal;font-stretch:normal;font-size:medium;line-height:normal;font-family:sans-serif;font-variant-ligatures:normal;font-variant-position:normal;font-variant-caps:normal;font-variant-numeric:normal;font-variant-alternates:normal;font-variant-east-asian:normal;font-feature-settings:normal;font-variation-settings:normal;text-indent:0;text-align:start;text-decoration:none;text-decoration-line:none;text-decoration-style:solid;text-decoration-color:#000000;letter-spacing:normal;word-spacing:normal;text-transform:none;writing-mode:lr-tb;direction:ltr;text-orientation:mixed;dominant-baseline:auto;baseline-shift:baseline;text-anchor:start;white-space:normal;shape-padding:0;shape-margin:0;inline-size:0;clip-rule:nonzero;display:inline;overflow:visible;visibility:visible;isolation:auto;mix-blend-mode:normal;color-interpolation:sRGB;color-interpolation-filters:linearRGB;solid-color:#000000;solid-opacity:1;vector-effect:none;fill:#1a1a1a;fill-opacity:1;fill-rule:evenodd;stroke:none;stroke-width:9.99999;stroke-linecap:round;stroke-linejoin:miter;stroke-miterlimit:4;stroke-dasharray:none;stroke-dashoffset:0;stroke-opacity:1;color-rendering:auto;image-rendering:auto;shape-rendering:auto;text-rendering:auto;enable-background:accumulate;stop-color:#000000"
       d="m 243.56641,238.46875 c -2.82317,0.12031 -5.60105,1.19473 -7.83008,3.23828 L 115.00781,352.36719 c -5.09335,4.67051 -5.39377,12.62769 -0.56445,17.89843 4.83088,5.27138 12.78843,5.67141 17.88476,1.00196 L 253.05664,260.60156 c 5.09692,-4.67097 5.39541,-12.63077 0.5625,-17.90234 -2.4162,-2.63499 -5.61222,-4.05094 -8.8418,-4.22461 -0.40369,-0.0217 -0.80762,-0.0231 -1.21093,-0.006 z"
       transform="scale(0.26458333)" />
    <path
       id="path941"
       style="color:#000000;font-style:normal;font-variant:normal;font-weight:normal;font-stretch:normal;font-size:medium;line-height:normal;font-family:sans-serif;font-variant-ligatures:normal;font-variant-position:normal;font-variant-caps:normal;font-variant-numeric:normal;font-variant-alternates:normal;font-variant-east-asian:normal;font-feature-settings:normal;font-variation-settings:normal;text-indent:0;text-align:start;text-decoration:none;text-decoration-line:none;text-decoration-style:solid;text-decoration-color:#000000;letter-spacing:normal;word-spacing:normal;text-transform:none;writing-mode:lr-tb;direction:ltr;text-orientation:mixed;dominant-baseline:auto;baseline-shift:baseline;text-anchor:start;white-space:normal;shape-padding:0;shape-margin:0;inline-size:0;clip-rule:nonzero;display:inline;overflow:visible;visibility:visible;isolation:auto;mix-blend-mode:normal;color-interpolation:sRGB;color-interpolation-filters:linearRGB;solid-color:#000000;solid-opacity:1;vector-effect:none;fill:#4d4d4d;fill-opacity:1;fill-rule:nonzero;stroke:none;stroke-width:50.0001;stroke-linecap:butt;stroke-linejoin:round;stroke-miterlimit:4;stroke-dasharray:none;stroke-dashoffset:0;stroke-opacity:1;color-rendering:auto;image-rendering:auto;shape-rendering:auto;text-rendering:auto;enable-background:accumulate;stop-color:#000000"
       d="m 476.79688,302.55273 c -9.91274,0.12627 -19.76605,2.74809 -28.51954,7.76563 l 27.89454,24.05273 c 6.46471,-0.30993 13.06691,1.82968 18.51757,6.5293 l 64.20899,55.36133 c 11.27331,9.72 12.46801,25.91807 2.74804,37.1914 -9.72003,11.27332 -25.91219,12.47 -37.18554,2.75 L 460.25,380.8418 c -5.44897,-4.69816 -8.53663,-10.91071 -9.18359,-17.34766 l -27.89844,-24.05469 c -8.7785,22.44976 -3.04641,49.11146 16.1582,65.66993 l 64.20899,55.36328 c 24.29907,20.95094 61.42984,18.20337 82.38086,-6.09571 20.95094,-24.29907 18.20727,-61.43185 -6.0918,-82.38281 l -64.21094,-55.36328 c -10.63083,-9.16604 -23.71921,-13.79661 -36.83398,-14.07031 -0.66108,-0.0138 -1.32158,-0.0162 -1.98242,-0.008 z"
       transform="scale(0.26458333)" />
    <path
       id="path949"
       style="color:#000000;font-style:normal;font-variant:normal;font-weight:normal;font-stretch:normal;font-size:medium;line-height:normal;font-family:sans-serif;font-variant-ligatures:normal;font-variant-position:normal;font-variant-caps:normal;font-variant-numeric:normal;font-variant-alternates:normal;font-variant-east-asian:normal;font-feature-settings:normal;font-variation-settings:normal;text-indent:0;text-align:start;text-decoration:none;text-decoration-line:none;text-decoration-style:solid;text-decoration-color:#000000;letter-spacing:normal;word-spacing:normal;text-transform:none;writing-mode:lr-tb;direction:ltr;text-orientation:mixed;dominant-baseline:auto;baseline-shift:baseline;text-anchor:start;white-space:normal;shape-padding:0;shape-margin:0;inline-size:0;clip-rule:nonzero;display:inline;overflow:visible;visibility:visible;isolation:auto;mix-blend-mode:normal;color-interpolation:sRGB;color-interpolation-filters:linearRGB;solid-color:#000000;solid-opacity:1;vector-effect:none;fill:#1a1a1a;fill-opacity:1;fill-rule:evenodd;stroke:none;stroke-width:9.99999;stroke-linecap:round;stroke-linejoin:miter;stroke-miterlimit:4;stroke-dasharray:none;stroke-dashoffset:0;stroke-opacity:1;color-rendering:auto;image-rendering:auto;shape-rendering:auto;text-rendering:auto;enable-background:accumulate;stop-color:#000000"
       d="m 350.95312,238.70117 c -0.40366,-0.005 -0.80808,0.009 -1.21093,0.043 -3.22281,0.27165 -6.37392,1.78308 -8.70899,4.49024 -4.67058,5.41592 -4.13095,13.36488 1.10547,17.8789 l 124.03321,106.94336 h 0.004 c 5.23582,4.50945 13.17423,3.87157 17.8418,-1.54297 4.66613,-5.41395 4.12659,-13.35501 -1.10352,-17.86914 L 358.87891,241.69727 c -2.29007,-1.97491 -5.10014,-2.96218 -7.92579,-2.9961 z"
       transform="scale(0.26458333)" />
    <path
       style="fill:#ffff81;fill-opacity:1;fill-rule:evenodd;stroke:none;stroke-width:0.999999;stroke-linecap:butt;stroke-linejoin:miter;stroke-miterlimit:4;stroke-dasharray:none;stroke-opacity:1"
       d="m 70.751324,42.59278 2.299853,-1.310877 1.416639,7.047931 z"
       id="path891" />
    <path
       style="fill:#ffff81;fill-opacity:1;fill-rule:evenodd;stroke:none;stroke-width:0.999999;stroke-linecap:butt;stroke-linejoin:miter;stroke-miterlimit:4;stroke-dasharray:none;stroke-opacity:1"
       d="m 89.160871,33.669926 2.188054,0.453265 -5.396825,10.65017 z"
       id="path893" />
    <path
       style="fill:#ffff81;fill-opacity:1;fill-rule:evenodd;stroke:none;stroke-width:0.999999;stroke-linecap:butt;stroke-linejoin:miter;stroke-miterlimit:4;stroke-dasharray:none;stroke-opacity:1"
       d="m 77.716902,32.858282 2.44855,-0.338058 -0.814205,8.909436 z"
       id="path895" />
    <path
       style="fill:#ad0000;fill-opacity:1;fill-rule:evenodd;stroke:none;stroke-width:0.264583px;stroke-linecap:butt;stroke-linejoin:miter;stroke-opacity:1"
       d="m 68.712792,43.107296 1.915007,-1.82769 3.077469,6.496877 z"
       id="path1171" />
    <path
       style="fill:#ad0000;fill-opacity:1;fill-rule:evenodd;stroke:none;stroke-width:0.264584px;stroke-linecap:butt;stroke-linejoin:miter;stroke-opacity:1"
       d="m 86.905796,33.649615 2.227501,0.176921 -4.026849,11.239944 z"
       id="path1173" />
    <path
       style="fill:#ad0000;fill-opacity:1;fill-rule:evenodd;stroke:none;stroke-width:0.264584px;stroke-linecap:butt;stroke-linejoin:miter;stroke-opacity:1"
       d="m 75.3491,33.191831 2.329224,-0.827281 1.008329,8.889557 z"
       id="path1175" />
    <path
       style="fill:#ffff81;fill-opacity:1;fill-rule:evenodd;stroke:none;stroke-width:1;stroke-linecap:butt;stroke-linejoin:miter;stroke-miterlimit:4;stroke-dasharray:none;stroke-opacity:1"
       d="M 89.552322,93.557309 87.62957,94.653258 86.445215,88.76096 Z"
       id="path897" />
    <path
       style="fill:#ffff81;fill-opacity:1;fill-rule:evenodd;stroke:none;stroke-width:1;stroke-linecap:butt;stroke-linejoin:miter;stroke-miterlimit:4;stroke-dasharray:none;stroke-opacity:1"
       d="m 74.161347,101.01711 -1.829271,-0.37895 4.511907,-8.903879 z"
       id="path899" />
    <path
       style="fill:#1a1a1a;fill-opacity:1;fill-rule:evenodd;stroke:none;stroke-width:0.264583px;stroke-linecap:butt;stroke-linejoin:miter;stroke-opacity:1"
       d="m 69.971866,41.813327 2.299853,-1.310876 1.41664,7.047931 z"
       id="path1157" />
    <path
       style="fill:#ffff81;fill-opacity:1;fill-rule:evenodd;stroke:none;stroke-width:1;stroke-linecap:butt;stroke-linejoin:miter;stroke-miterlimit:4;stroke-dasharray:none;stroke-opacity:1"
       d="m 83.728874,101.69568 -2.047067,0.28262 0.680702,-7.448582 z"
       id="path901" />
    <path
       style="fill:#1a1a1a;fill-opacity:1;fill-rule:evenodd;stroke:none;stroke-width:0.264584px;stroke-linecap:butt;stroke-linejoin:miter;stroke-opacity:1"
       d="m 88.381414,32.890473 2.188053,0.453265 -5.396824,10.65017 z"
       id="path1159" />
    <path
       style="fill:#1a1a1a;fill-opacity:1;fill-rule:evenodd;stroke:none;stroke-width:0.264584px;stroke-linecap:butt;stroke-linejoin:miter;stroke-opacity:1"
       d="m 76.937444,32.07883 2.448551,-0.338058 -0.814205,8.909435 z"
       id="path1161" />
    <path
       style="fill:#ad0000;fill-opacity:1;fill-rule:evenodd;stroke:none;stroke-width:0.264584px;stroke-linecap:butt;stroke-linejoin:miter;stroke-opacity:1"
       d="m 87.718075,93.89596 -2.14067,0.561792 0.378711,-5.998204 z"
       id="path1177" />
    <path
       style="fill:#ad0000;fill-opacity:1;fill-rule:evenodd;stroke:none;stroke-width:0.264585px;stroke-linecap:butt;stroke-linejoin:miter;stroke-opacity:1"
       d="m 81.843855,101.81737 -2.065637,-0.0589 1.900018,-7.23426 z"
       id="path1181" />
    <path
       style="fill:#1a1a1a;fill-opacity:1;fill-rule:evenodd;stroke:none;stroke-width:0.264584px;stroke-linecap:butt;stroke-linejoin:miter;stroke-opacity:1"
       d="m 88.90067,92.905657 -1.922751,1.09595 -1.184356,-5.892298 z"
       id="path1163" />
    <path
       style="fill:#1a1a1a;fill-opacity:1;fill-rule:evenodd;stroke:none;stroke-width:0.264585px;stroke-linecap:butt;stroke-linejoin:miter;stroke-opacity:1"
       d="m 83.077223,101.04403 -2.047067,0.28262 0.680701,-7.448583 z"
       id="path1167" />
    <path
       style="fill:#ad0000;fill-opacity:1;fill-rule:evenodd;stroke:none;stroke-width:0.264585px;stroke-linecap:butt;stroke-linejoin:miter;stroke-opacity:1"
       d="m 72.564625,100.98072 -1.801563,-0.49418 5.067381,-8.599878 z"
       id="path1179" />
    <path
       style="fill:#1a1a1a;fill-opacity:1;fill-rule:evenodd;stroke:none;stroke-width:0.264585px;stroke-linecap:butt;stroke-linejoin:miter;stroke-opacity:1"
       d="M 73.509696,100.36546 71.680425,99.986511 76.192332,91.08263 Z"
       id="path1165" />
  </g>
</svg>
