<?xml version="1.0" encoding="UTF-8" standalone="no"?>
<svg
   xmlns:dc="http://purl.org/dc/elements/1.1/"
   xmlns:cc="http://creativecommons.org/ns#"
   xmlns:rdf="http://www.w3.org/1999/02/22-rdf-syntax-ns#"
   xmlns:svg="http://www.w3.org/2000/svg"
   xmlns="http://www.w3.org/2000/svg"
   xmlns:xlink="http://www.w3.org/1999/xlink"
   width="56.407139mm"
   height="15.369mm"
   viewBox="0 0 56.407139 15.369"
   version="1.1"
   id="svg2735">
  <defs
     id="defs2729" />
  <metadata
     id="metadata2732">
    <rdf:RDF>
      <cc:Work
         rdf:about="">
        <dc:format>image/svg+xml</dc:format>
        <dc:type
           rdf:resource="http://purl.org/dc/dcmitype/StillImage" />
        <dc:title></dc:title>
      </cc:Work>
    </rdf:RDF>
  </metadata>
  <g
     id="layer1"
     transform="translate(-41.34405,-151.0655)">
    <g
       id="g2013"
       transform="translate(-79.660827,-121.33263)">
      <path
         id="path1978"
         style="font-style:normal;font-variant:normal;font-weight:normal;font-stretch:normal;font-size:7.05556px;line-height:125%;font-family:Norican;-inkscape-font-specification:Norican;text-align:center;letter-spacing:0px;word-spacing:0px;text-anchor:middle;fill:#e2725b;fill-opacity:1;stroke:none;stroke-width:0.276892px;stroke-linecap:butt;stroke-linejoin:miter;stroke-opacity:1"
         xlink:href="#text5112-1"
         d="m 45.662109,205.35352 c -1.666031,0 -3.161446,0.40846 -4.435547,1.23046 -1.202588,0.77262 -2.168451,1.7707 -2.876953,2.97852 -1.024441,1.73247 -1.548828,3.55854 -1.548828,5.43945 0,1.31916 0.280585,2.5275 0.845703,3.59571 a 0.58138748,0.58138748 0 0 0 0.002,0.004 c 0.991631,1.83866 2.679707,2.83594 4.792968,2.83594 1.848928,0 3.724306,-0.97446 5.621094,-2.35156 0.09937,0.59978 0.282846,1.10418 0.619141,1.48828 0.336295,0.3841 0.841893,0.59961 1.357421,0.59961 0.745137,0 1.476889,-0.26479 2.152344,-0.74024 l 0.0039,-0.002 c 0.261891,-0.18299 0.451436,-0.44734 0.6875,-0.66016 0.03177,0.27778 0.03456,0.56991 0.167969,0.80079 0.20374,0.35258 0.635515,0.60156 1.042969,0.60156 0.355808,0 0.604574,-0.13107 0.929688,-0.3086 0.325113,-0.17752 0.701254,-0.42696 1.146484,-0.75195 v 0.002 c 0.182188,-0.13202 0.352917,-0.31574 0.533203,-0.4707 -0.03113,0.21448 -0.10967,0.48691 -0.111328,0.66602 a 0.58138748,0.58138748 0 0 0 0.582031,0.58789 h 1.808594 a 0.58138748,0.58138748 0 0 0 0.566406,-0.45313 c 0.199701,-0.87516 0.634437,-2.05723 1.306641,-3.51367 a 0.58138748,0.58138748 0 0 0 0,-0.002 c 0.310612,-0.67499 0.659011,-1.23493 1.037109,-1.6875 a 0.58138748,0.58138748 0 0 0 0.0039,-0.004 c 0.222341,-0.2695 0.305497,-0.26069 0.435547,-0.33203 -0.03067,0.12099 -0.06707,0.32198 -0.25,0.7793 a 0.58138748,0.58138748 0 0 0 -0.002,0.004 c -0.238798,0.60668 -0.47955,1.28275 -0.722656,2.03125 a 0.58138748,0.58138748 0 0 0 -0.002,0.004 c -0.24616,0.77175 -0.376953,1.4551 -0.376953,2.07031 0,0.35192 0.0797,0.708 0.326172,0.98438 0.246474,0.27638 0.620998,0.39453 0.966796,0.39453 0.354244,0 0.579427,-0.13324 0.873047,-0.30469 0.293621,-0.17145 0.629783,-0.40917 1.027344,-0.71875 0.269921,-0.21067 0.593481,-0.54361 0.888672,-0.8125 0.01018,0.4257 0.07749,0.8236 0.263672,1.16211 a 0.58138748,0.58138748 0 0 0 0.0039,0.006 c 0.219736,0.38954 0.678957,0.66797 1.130859,0.66797 a 0.58138748,0.58138748 0 0 0 0.02734,-0.002 c 0.76226,-0.0351 1.502929,-0.45061 2.322266,-1.12891 a 0.58138748,0.58138748 0 0 0 0.002,-0.002 c 0.137035,-0.11454 0.428968,-0.40288 0.654297,-0.61719 0.04221,0.21669 0.03229,0.47193 0.107422,0.66601 a 0.58138748,0.58138748 0 0 0 0.0059,0.0117 c 0.126496,0.3072 0.340705,0.5753 0.611328,0.76367 0.319436,0.22852 0.705279,0.3086 1.119141,0.3086 0.594986,0 1.143377,-0.29172 1.86914,-0.75781 a 0.58138748,0.58138748 0 0 0 0.002,-0.002 c 0.352545,-0.22963 0.686295,-0.6252 1.029296,-0.93164 0.01407,0.4082 0.054,0.78526 0.248047,1.09961 0.220564,0.3573 0.662124,0.5918 1.078125,0.5918 0.371012,0 0.676946,-0.15224 0.998047,-0.36133 a 0.58138748,0.58138748 0 0 0 0.002,0 c 0.152162,-0.0992 0.292098,-0.19431 0.421875,-0.28516 a 0.58138748,0.58138748 0 0 0 0.01563,-0.0117 c 0.148395,-0.11129 0.315982,-0.25371 0.513672,-0.43164 v 0.002 l 0.464844,-0.41797 0.0098,-0.008 c 0.107046,-0.0922 0.241752,-0.23246 0.375,-0.36524 0.01049,0.0332 0.0037,0.0686 0.01562,0.10156 a 0.58138748,0.58138748 0 0 0 0.0039,0.01 c 0.223171,0.58582 0.648815,1.06259 1.207031,1.35352 0.558216,0.29092 1.231096,0.41406 2.007812,0.41406 0.870386,0 1.739287,-0.35115 2.595704,-0.97461 0.25669,-0.18688 0.494736,-0.44903 0.746093,-0.69531 0.109137,0.39141 0.203859,0.79395 0.445313,1.07031 0.335739,0.38427 0.83994,0.59961 1.355469,0.59961 0.745135,0 1.476888,-0.26479 2.152343,-0.74024 l 0.0039,-0.002 c 0.26189,-0.18299 0.451435,-0.44734 0.6875,-0.66016 0.03204,0.27812 0.036,0.56997 0.169921,0.80079 0.204485,0.35243 0.635516,0.60156 1.042969,0.60156 0.355808,0 0.605104,-0.13106 0.929688,-0.3086 0.324583,-0.17753 0.69947,-0.42709 1.144531,-0.75195 v 0.002 c 0.906614,-0.65696 1.84595,-1.49149 2.824219,-2.50195 a 0.58138748,0.58138748 0 0 0 0.164062,-0.4043 v -1.06054 A 0.58138748,0.58138748 0 0 0 94.828125,215.75 c -0.748808,0.79249 -1.359127,1.38107 -1.810547,1.75586 -0.134163,0.11139 -0.219466,0.16407 -0.322266,0.23633 0.02685,-0.31343 0.136798,-1.08079 0.431641,-2.44727 0.119417,-0.55309 0.239586,-1.09346 0.359375,-1.62304 a 0.58138748,0.58138748 0 0 0 0,-0.002 c 0.06016,-0.26914 0.106636,-0.47723 0.138672,-0.625 0.03204,-0.14776 0.04438,-0.17978 0.06055,-0.29297 a 0.58138748,0.58138748 0 0 0 -0.402344,-0.63672 c -0.695007,-0.21843 -1.266354,-0.33984 -1.765625,-0.33984 -0.897583,0 -1.781561,0.1947 -2.632812,0.57227 -0.833379,0.37264 -1.565409,0.86046 -2.179688,1.46093 a 0.58138748,0.58138748 0 0 0 -0.002,0.002 c -0.289502,0.28621 -0.466419,0.6551 -0.703125,0.98047 0.06907,-0.25256 0.167969,-0.49737 0.167969,-0.76563 0,-0.68581 -0.271386,-1.32775 -0.792969,-1.7168 -0.521583,-0.38904 -1.207775,-0.5332 -2.025391,-0.5332 -1.003995,0 -1.945591,0.32327 -2.761718,0.93359 v -0.002 c -0.795659,0.59325 -1.414892,1.36588 -1.837891,2.28711 -0.261591,0.56607 -0.286314,1.08941 -0.351562,1.54883 -0.339847,0.34827 -0.718983,0.74253 -0.902344,0.91406 a 0.58138748,0.58138748 0 0 0 -0.0039,0.002 c -0.01588,0.0151 -0.02178,0.0169 -0.03711,0.0312 0.02911,-0.22528 0.05522,-0.46518 0.181641,-1.01562 0.169185,-0.73666 0.426558,-1.734 0.769531,-2.98633 0.693396,-2.51513 1.236485,-4.35433 1.621094,-5.50195 a 0.58138748,0.58138748 0 0 0 0.0059,-0.0215 c 0.198908,-0.67371 0.314353,-1.09583 0.351563,-1.41211 a 0.58138748,0.58138748 0 0 0 -0.578125,-0.65039 h -0.330079 c -0.287527,0 -0.560403,0.0117 -0.818359,0.0312 -0.363044,0.0191 -0.710738,0.16163 -1.015625,0.38282 -0.268693,0.19072 -0.356472,0.40203 -0.460937,0.65625 -0.105029,0.25558 -0.196404,0.5667 -0.289063,0.94726 l 0.0039,-0.0195 -1.123046,4.01367 c -0.318093,-0.0572 -0.631572,-0.13867 -0.958985,-0.13867 -0.637124,0 -1.277788,0.25726 -1.953125,0.69141 -0.6676,0.42708 -1.261343,0.96828 -1.777344,1.61328 -0.515576,0.64447 -0.94027,1.37029 -1.269531,2.16992 -0.08527,0.20647 -0.07528,0.26213 -0.07813,0.31836 -0.301824,0.31559 -0.564695,0.59891 -0.966797,0.99414 -0.249935,0.24563 -0.40944,0.38505 -0.582031,0.53906 0.03396,-0.28228 0.08739,-0.67779 0.287109,-1.44726 0.245298,-0.94506 0.617947,-2.21797 1.115235,-3.81055 a 0.58138748,0.58138748 0 0 0 -0.554688,-0.75586 c -0.371154,0 -0.688444,0.0107 -0.955078,0.0312 a 0.58138748,0.58138748 0 0 0 -0.01758,0.002 c -0.215991,0.0231 -0.40031,0.0589 -0.591797,0.1543 -0.103526,0.0485 -0.214736,0.10714 -0.339844,0.18359 -0.195042,0.11919 -0.355822,0.28573 -0.472656,0.47071 -0.118329,0.18736 -0.217494,0.4115 -0.34375,0.73047 a 0.58138748,0.58138748 0 0 0 -0.0039,0.01 c -0.140958,0.37589 -0.357979,1.2321 -0.673828,2.51758 -0.16063,0.1486 -0.300921,0.27692 -0.669922,0.63086 -0.08751,0.083 -0.131525,0.12256 -0.208985,0.19531 0.08764,-0.27199 0.14974,-0.4783 0.271485,-0.84179 0.226754,-0.67069 0.398462,-1.22059 0.515625,-1.66016 0.117163,-0.43957 0.1875,-0.74566 0.1875,-1.04492 0,-0.45046 -0.09036,-0.87378 -0.367188,-1.20508 -0.276832,-0.3313 -0.717134,-0.48633 -1.142578,-0.48633 -0.52974,0 -1.06266,0.16338 -1.58789,0.45117 -0.504765,0.27659 -0.966213,0.63146 -1.388672,1.05078 0.05549,-0.19071 0.07327,-0.23978 0.132812,-0.44531 a 0.58138748,0.58138748 0 0 0 -0.558594,-0.74414 h -0.634765 c -0.431414,0 -0.809363,0.0542 -1.144531,0.20313 a 0.58138748,0.58138748 0 0 0 -0.0059,0.002 c -0.386173,0.17652 -0.653845,0.52599 -0.810547,0.92187 a 0.58138748,0.58138748 0 0 0 0,0.002 c -0.292072,0.7395 -0.605823,1.87507 -0.949218,3.27148 -0.405174,0.38908 -0.815848,0.78476 -1.144532,1.07227 -0.0361,0.0316 -0.05563,0.0433 -0.08984,0.0723 0.03646,-0.35345 0.130448,-1.03251 0.412109,-2.33789 0.119417,-0.55309 0.239585,-1.09346 0.359375,-1.62304 a 0.58138748,0.58138748 0 0 0 0,-0.002 c 0.06016,-0.26914 0.106636,-0.47723 0.138672,-0.625 0.03204,-0.14776 0.04438,-0.17978 0.06055,-0.29297 a 0.58138748,0.58138748 0 0 0 -0.402344,-0.63672 c -0.695007,-0.21843 -1.266355,-0.33984 -1.765625,-0.33984 -0.897583,0 -1.783187,0.19455 -2.634766,0.57227 -0.833708,0.37279 -1.563937,0.86093 -2.177734,1.46093 a 0.58138748,0.58138748 0 0 0 -0.002,0.002 c -0.601123,0.59429 -1.091508,1.27577 -1.460938,2.03515 -0.140329,0.28845 -0.129146,0.42074 -0.140625,0.53711 -0.696892,0.56904 -1.371206,1.13873 -1.99414,1.43946 -1.037664,0.49463 -1.991007,0.72851 -2.865235,0.72851 -1.108119,0 -1.914584,-0.35061 -2.574218,-1.08984 v -0.002 c -0.646757,-0.73908 -0.992188,-1.76624 -0.992188,-3.17773 0,-1.41798 0.33014,-2.67784 0.992188,-3.82031 a 0.58138748,0.58138748 0 0 0 0,-0.002 c 0.323805,-0.56519 0.703134,-1.06644 1.140625,-1.50976 0.424548,-0.43021 0.91853,-0.77783 1.490234,-1.04688 0.564285,-0.26258 1.145518,-0.40118 1.757812,-0.42578 0.141032,6.3e-4 0.254399,0.0415 0.457032,0.36133 0.19245,0.30374 0.386439,0.87518 0.544922,1.61133 -6.52e-4,-0.0526 0.0072,0.0205 -0.257813,0.20508 a 0.58138748,0.58138748 0 0 0 -0.0039,0.002 c -0.31199,0.22123 -0.661664,0.41752 -1.050781,0.58594 a 0.58138748,0.58138748 0 0 0 -0.002,0 c -0.579813,0.25223 -1.025604,0.48393 -1.363281,0.72461 -0.337677,0.24068 -0.664062,0.49865 -0.664062,1.0039 0,0.22285 0.05948,0.48961 0.255859,0.69336 0.196379,0.20375 0.473598,0.27539 0.697266,0.27539 0.182625,0 0.213341,-0.0326 0.27539,-0.0547 0.06205,-0.022 0.122035,-0.0471 0.191407,-0.0781 0.138742,-0.0621 0.312444,-0.14625 0.529297,-0.25781 0.432792,-0.22266 1.038519,-0.5522 1.822265,-0.98828 l 0.0039,-0.002 c 1.112514,-0.60964 1.823509,-0.99071 2.074219,-1.11328 a 0.58138748,0.58138748 0 0 0 0.0078,-0.004 c 0.46003,-0.23513 0.746093,-0.767 0.746093,-1.28516 0,-0.99879 -0.418844,-1.92147 -1.171875,-2.66016 -0.761539,-0.74703 -1.73796,-1.14257 -2.8125,-1.14257 z m 24.027344,2.17773 c -0.500736,0 -0.974705,0.26606 -1.294922,0.66211 a 0.58138748,0.58138748 0 0 0 -0.002,0 c -0.298899,0.37161 -0.478516,0.81734 -0.478516,1.27539 0,0.32259 0.08783,0.66816 0.335938,0.91992 0.248104,0.25177 0.595708,0.34375 0.917969,0.34375 0.534614,0 1.047727,-0.23132 1.433593,-0.61719 0.359264,-0.3531 0.626954,-0.75104 0.626954,-1.23437 0,-0.37926 -0.148905,-0.78475 -0.457032,-1.03125 -0.307319,-0.24586 -0.683959,-0.31836 -1.082031,-0.31836 z m 5.4375,6.07227 c 0.056,0 0.146334,0.027 0.234375,0.0547 l -0.742187,3.25977 c 0.01938,-0.0795 -0.218773,0.32071 -0.791016,0.75586 -0.555609,0.41602 -0.979611,0.56445 -1.164063,0.56445 -0.108926,0 -0.06002,0.017 -0.09375,-0.0352 -0.03373,-0.0522 -0.101562,-0.24754 -0.101562,-0.58593 0,-0.55493 0.125936,-1.15336 0.398438,-1.80274 a 0.58138748,0.58138748 0 0 0 0.002,-0.002 c 0.269882,-0.64886 0.62968,-1.18577 1.082031,-1.62695 0.437904,-0.42709 0.810328,-0.58203 1.175781,-0.58203 z m 8.261719,0.18945 c 0.188731,0 0.2335,0.0386 0.242187,0.0469 a 0.58138748,0.58138748 0 0 0 0.01953,0.0176 c -0.06501,-0.0569 0.02734,0.0325 0.02734,0.35742 0,0.26676 -0.0799,0.50986 -0.289062,0.78711 a 0.58138748,0.58138748 0 0 0 -0.0039,0.004 c -0.189019,0.25653 -0.305627,0.30469 -0.480469,0.30469 -0.28635,0 -0.564059,-0.15917 -0.859375,-0.44532 0.09985,-0.19173 0.177319,-0.37881 0.373047,-0.60156 l 0.002,-0.002 c 7.46e-4,-8.5e-4 0.0012,-0.001 0.002,-0.002 0.121917,-0.13456 0.268568,-0.24704 0.447266,-0.3418 0.166266,-0.0849 0.330336,-0.125 0.519531,-0.125 z m -29.5,0.004 -0.84961,3.63281 c -0.264902,0.26903 -0.546683,0.52368 -0.871093,0.7539 a 0.58138748,0.58138748 0 0 0 -0.0039,0.004 c -0.334244,0.2411 -0.576069,0.30664 -0.636718,0.30664 -0.160946,0 -0.151287,-0.003 -0.208985,-0.0918 -0.0577,-0.0885 -0.136718,-0.3375 -0.136718,-0.74804 0,-0.55452 0.15266,-1.14435 0.490234,-1.78516 0.334378,-0.63476 0.779847,-1.1603 1.353516,-1.59766 0.294189,-0.22428 0.579917,-0.37563 0.863281,-0.4746 z m 36.673828,0 -0.849609,3.63281 c -0.264903,0.26903 -0.546684,0.52368 -0.871094,0.7539 a 0.58138748,0.58138748 0 0 0 -0.0039,0.004 c -0.334245,0.2411 -0.576068,0.30664 -0.636719,0.30664 -0.160946,0 -0.151287,-0.003 -0.208984,-0.0918 -0.0577,-0.0885 -0.136719,-0.3375 -0.136719,-0.74804 0,-0.55452 0.152661,-1.14435 0.490234,-1.78516 0.334378,-0.63476 0.779847,-1.1603 1.353516,-1.59766 0.294189,-0.22428 0.579917,-0.37563 0.863281,-0.4746 z m -5.443359,2.52734 c -0.04217,0.18742 -0.111131,0.38865 -0.134766,0.52734 -0.412411,0.41109 -0.781555,0.77463 -1.056641,1.03321 -0.280449,0.26328 -0.612975,0.52071 -0.998046,0.76953 a 0.58138748,0.58138748 0 0 0 -0.002,0.002 c -0.352247,0.23116 -0.610152,0.30078 -0.705078,0.30078 -0.397506,0 -0.567842,-0.0913 -0.724609,-0.30664 -0.156768,-0.21537 -0.285156,-0.63981 -0.285156,-1.29883 0,-0.18484 0.107023,-0.39443 0.146484,-0.58789 0.0785,0.0547 0.124713,0.15371 0.208984,0.19922 0.381623,0.20607 0.781188,0.32617 1.185547,0.32617 0.868447,0 1.683703,-0.33765 2.353516,-0.94922 a 0.58138748,0.58138748 0 0 0 0.002,-0.002 c 0.0043,-0.004 0.0055,-0.01 0.0098,-0.0137 z"
         transform="matrix(0.95554707,0,0,0.95554707,85.839999,76.173176)" />
      <g
         aria-label="Canidea"
         id="text1982"
         style="font-style:normal;font-variant:normal;font-weight:normal;font-stretch:normal;font-size:6.74192px;line-height:125%;font-family:Norican;-inkscape-font-specification:Norican;text-align:center;letter-spacing:0px;word-spacing:0px;text-anchor:middle;fill:#f5cdc5;fill-opacity:1;stroke:none;stroke-width:0.264583px;stroke-linecap:butt;stroke-linejoin:miter;stroke-opacity:1">
        <path
           d="m 130.74038,276.2941 q -0.48886,-2.42617 -1.53899,-2.42617 -0.99582,0.0362 -1.91016,0.4617 -0.90529,0.42548 -1.58425,1.1135 -0.67897,0.68802 -1.17688,1.5571 -1.02297,1.76531 -1.02297,3.92895 0,2.16364 1.08634,3.40388 1.0954,1.23119 2.87882,1.23119 1.40319,0 2.9784,-0.75139 1.5752,-0.76044 3.06892,-2.19985 v 1.00487 q -3.80221,3.594 -7.12462,3.594 -2.78828,0 -4.0919,-2.41712 -0.74233,-1.4032 -0.74233,-3.17756 0,-2.54386 1.40319,-4.91572 0.95056,-1.62046 2.57102,-2.66155 1.68384,-1.08634 3.938,-1.08634 1.34888,0 2.29944,0.93245 0.95055,0.93244 0.95055,2.14553 0,0.52507 -0.40738,0.73328 -0.40738,0.19916 -2.00974,1.07729 -2.24512,1.2493 -2.42617,1.2493 -0.35307,0 -0.35307,-0.37117 0,-0.44359 1.60236,-1.14066 0.60655,-0.26253 1.10446,-0.6156 0.50696,-0.35306 0.50696,-0.66991 z"
           style="font-size:18.5403px;fill:#f5cdc5;fill-opacity:1;stroke-width:0.264583px"
           id="path1989" />
        <path
           d="m 133.65541,286.9584 q -1.08635,0 -1.33983,-1.52994 -0.0543,-0.37117 -0.0543,-0.7695 0,-0.98676 0.48886,-1.99163 0.48885,-1.00487 1.28551,-1.79247 0.8057,-0.7876 1.91921,-1.28551 1.12255,-0.49791 2.29038,-0.49791 0.57033,0 1.52088,0.29875 -0.009,0.0634 -0.18106,0.83286 -0.172,0.76044 -0.34401,1.5571 -0.47075,2.18174 -0.47075,2.70681 0,0.52507 0.27159,0.52507 0.59749,0 2.77018,-2.29944 v 1.01393 q -1.37604,1.4213 -2.62533,2.32659 -1.24025,0.90529 -1.65668,0.90529 -0.68802,0 -0.68802,-1.18593 0,-0.38928 0.0724,-0.87813 -0.6518,0.85097 -1.52088,1.45751 -0.86003,0.60655 -1.73815,0.60655 z m 0.53412,-2.8064 q 0,1.35793 0.88718,1.35793 0.38022,0 0.93244,-0.39832 0.56128,-0.39833 1.01393,-0.87813 l 1.04108,-4.45402 q -0.97771,0 -1.89205,0.69707 -0.91434,0.69707 -1.44846,1.711 -0.53412,1.01392 -0.53412,1.96447 z"
           style="font-size:18.5403px;fill:#f5cdc5;fill-opacity:1;stroke-width:0.264583px"
           id="path1991" />
        <path
           d="m 149.37121,282.74881 v 1.01392 q -1.43941,1.46657 -2.55292,2.33564 -1.10445,0.86003 -1.47562,0.86003 -0.67896,0 -0.67896,-0.76045 0,-0.76044 0.33496,-1.81057 0.344,-1.05919 0.67896,-1.91016 0.34401,-0.86002 0.34401,-1.14972 0,-0.28969 -0.10863,-0.42548 -0.0996,-0.1358 -0.24443,-0.1358 -0.51602,0 -1.11351,0.72424 -0.59749,0.71517 -1.06824,1.73815 -0.97771,2.11837 -1.2855,3.46725 h -1.72911 q 0.009,-0.97771 0.55223,-3.24093 0.54317,-2.26322 0.96866,-3.34051 0.172,-0.43454 0.48885,-0.57939 0.32591,-0.14484 0.86908,-0.14484 h 0.60654 q -0.66086,2.28132 -0.97771,3.28619 0.60655,-1.13161 1.75626,-2.29943 0.56128,-0.56128 1.22214,-0.92339 0.66086,-0.36212 1.2493,-0.36212 0.88718,0 0.88718,1.05919 0,0.50696 -0.64275,2.40807 -0.63371,1.89205 -0.63371,2.09121 0,0.19011 0.10864,0.19011 0.11769,0 0.29874,-0.11769 0.19011,-0.12674 1.0773,-0.96865 0.88718,-0.85098 1.06824,-1.00487 z"
           style="font-size:18.5403px;fill:#f5cdc5;fill-opacity:1;stroke-width:0.264583px"
           id="path1993" />
        <path
           d="m 150.37608,284.89434 q 0,0.59749 0.31685,0.59749 0.19916,0 1.2493,-1.03203 1.05918,-1.04108 1.68383,-1.7291 v 1.01392 q -1.78342,1.75626 -2.38996,2.26322 -1.10445,0.91434 -1.89205,0.95056 -0.39833,0 -0.59749,-0.35307 -0.19916,-0.36211 -0.19916,-0.92339 0,-0.56128 0.50696,-2.63439 0.50696,-2.07311 0.66991,-2.50765 0.172,-0.43454 0.28064,-0.60654 0.10863,-0.17201 0.27159,-0.27159 0.16295,-0.0996 0.28064,-0.1539 0.12674,-0.0634 0.38022,-0.0905 0.35306,-0.0272 0.86907,-0.0272 -1.43035,4.58075 -1.43035,5.50415 z m 1.55709,-7.91222 q -0.64275,0 -0.64275,-0.65181 0,-0.45264 0.33496,-0.86907 0.344,-0.42549 0.8057,-0.42549 0.4617,0 0.68802,0.18106 0.22632,0.18106 0.22632,0.55222 0,0.36212 -0.43454,0.78761 -0.42548,0.42548 -0.97771,0.42548 z"
           style="font-size:18.5403px;fill:#f5cdc5;fill-opacity:1;stroke-width:0.264583px"
           id="path1995" />
        <path
           d="m 157.42827,284.54128 q -0.97771,1.14066 -1.96447,1.78341 -0.98677,0.63371 -1.48468,0.63371 -0.48885,0 -0.75139,-0.19012 -0.26253,-0.18105 -0.38927,-0.48885 -0.21727,-0.56128 -0.21727,-1.37604 0,-0.81476 0.44359,-1.883 0.44359,-1.07729 1.13161,-1.93731 0.68802,-0.86003 1.56615,-1.42131 0.88718,-0.57033 1.56615,-0.57033 0.67896,0 1.32172,0.19011 l 1.20403,-4.30012 q 0.25348,-1.04108 0.49791,-1.21308 0.33496,-0.24443 0.67897,-0.26254 0.35306,-0.0272 0.75139,-0.0272 h 0.31685 q -0.0362,0.30779 -0.31685,1.25835 -0.56128,1.67478 -1.5571,5.28688 -0.98676,3.60305 -0.98676,4.30012 0,0.33495 0.0634,0.45264 0.0634,0.11769 0.23537,0.11769 0.18106,0 0.73329,-0.52507 0.56127,-0.52507 1.63857,-1.65668 v 1.01393 q -0.12674,0.12674 -0.47075,0.47075 -0.33496,0.34401 -0.49791,0.50696 l -0.4798,0.47075 q -0.3078,0.31685 -0.49791,0.4798 -0.18106,0.16295 -0.45265,0.40738 -0.27158,0.24443 -0.45264,0.38022 -0.18106,0.12674 -0.38927,0.26253 -0.38928,0.25349 -0.65181,0.25349 -0.74234,0 -0.74234,-1.20404 0,-0.57938 0.1539,-1.21308 z m 1.05013,-4.46307 q -0.0362,-0.12674 -0.3259,-0.23538 -0.28064,-0.11769 -0.52507,-0.11769 -0.77854,0 -1.51183,0.71518 -0.73328,0.71518 -1.15877,1.73815 -0.42548,1.01393 -0.42548,1.93732 0,1.14972 0.74233,1.14972 0.57939,0 1.44847,-0.65181 0.86907,-0.66086 0.9596,-1.03203 z"
           style="font-size:18.5403px;fill:#f5cdc5;fill-opacity:1;stroke-width:0.264583px"
           id="path1997" />
        <path
           d="m 163.53897,281.58098 q 0.68802,0.88719 1.52088,0.88719 0.52507,0 0.90529,-0.51602 0.38927,-0.51601 0.38927,-1.08634 0,-0.57034 -0.21727,-0.76045 -0.20821,-0.19916 -0.61559,-0.19916 -0.39833,0 -0.75139,0.18106 -0.34401,0.18106 -0.58844,0.45264 -0.47075,0.53412 -0.64275,1.04108 z m 4.97003,1.14972 v 0.99582 q -1.43941,1.58425 -2.57102,2.40806 -1.13161,0.82382 -2.15459,0.82382 -2.04595,0 -2.55291,-1.33078 -0.19011,-0.52507 -0.19011,-1.2674 0,-1.32172 0.55223,-2.5167 0.55222,-1.20404 1.58425,-1.97353 1.04108,-0.77855 2.30849,-0.77855 2.13648,0 2.13648,1.59331 0,1.03203 -0.83287,1.80152 -0.83286,0.76044 -1.87395,0.76044 -0.41643,0 -0.86907,-0.24442 -0.45265,-0.24443 -0.7695,-0.73329 -0.38927,0.81476 -0.38927,1.59331 0,2.09122 1.52088,2.09122 0.39833,0 0.97771,-0.38023 0.58844,-0.38022 1.03203,-0.79665 0.45265,-0.42548 1.14067,-1.1135 0.68801,-0.69708 0.95055,-0.93245 z"
           style="font-size:18.5403px;fill:#f5cdc5;fill-opacity:1;stroke-width:0.264583px"
           id="path1999" />
        <path
           d="m 168.69911,286.9584 q -1.08635,0 -1.33983,-1.52994 -0.0543,-0.37117 -0.0543,-0.7695 0,-0.98676 0.48886,-1.99163 0.48885,-1.00487 1.28551,-1.79247 0.8057,-0.7876 1.91921,-1.28551 1.12256,-0.49791 2.29038,-0.49791 0.57033,0 1.52088,0.29875 -0.009,0.0634 -0.18106,0.83286 -0.172,0.76044 -0.34401,1.5571 -0.47075,2.18174 -0.47075,2.70681 0,0.52507 0.27159,0.52507 0.59749,0 2.77018,-2.29944 v 1.01393 q -1.37604,1.4213 -2.62533,2.32659 -1.24025,0.90529 -1.65668,0.90529 -0.68802,0 -0.68802,-1.18593 0,-0.38928 0.0724,-0.87813 -0.6518,0.85097 -1.52088,1.45751 -0.86002,0.60655 -1.73815,0.60655 z m 0.53412,-2.8064 q 0,1.35793 0.88718,1.35793 0.38022,0 0.93245,-0.39832 0.56127,-0.39833 1.01392,-0.87813 l 1.04108,-4.45402 q -0.97771,0 -1.89205,0.69707 -0.91434,0.69707 -1.44846,1.711 -0.53412,1.01392 -0.53412,1.96447 z"
           style="font-size:18.5403px;fill:#f5cdc5;fill-opacity:1;stroke-width:0.264583px"
           id="path2001" />
      </g>
    </g>
  </g>
</svg>
