<?xml version="1.0" encoding="UTF-8" standalone="no"?>
<svg
   xmlns:dc="http://purl.org/dc/elements/1.1/"
   xmlns:cc="http://creativecommons.org/ns#"
   xmlns:rdf="http://www.w3.org/1999/02/22-rdf-syntax-ns#"
   xmlns:svg="http://www.w3.org/2000/svg"
   xmlns="http://www.w3.org/2000/svg"
   width="2.1769688in"
   height="0.56134999in"
   viewBox="0 0 55.295008 14.25829"
   version="1.1"
   id="svg2066">
  <defs
     id="defs2060" />
  <metadata
     id="metadata2063">
    <rdf:RDF>
      <cc:Work
         rdf:about="">
        <dc:format>image/svg+xml</dc:format>
        <dc:type
           rdf:resource="http://purl.org/dc/dcmitype/StillImage" />
        <dc:title></dc:title>
      </cc:Work>
    </rdf:RDF>
  </metadata>
  <g
     id="layer1"
     transform="translate(-78.185828,-83.58514)">
    <g
       aria-label="Canidea"
       id="g2031"
       style="font-style:normal;font-variant:normal;font-weight:normal;font-stretch:normal;font-size:6.74192px;line-height:125%;font-family:Norican;-inkscape-font-specification:Norican;text-align:center;letter-spacing:0px;word-spacing:0px;text-anchor:middle;fill:#ffffff;fill-opacity:1;stroke:none;stroke-width:0.264583px;stroke-linecap:butt;stroke-linejoin:miter;stroke-opacity:1"
       transform="translate(-43.374932,-189.36845)">
      <path
         d="m 130.74038,276.2941 q -0.48886,-2.42617 -1.53899,-2.42617 -0.99582,0.0362 -1.91016,0.4617 -0.90529,0.42548 -1.58425,1.1135 -0.67897,0.68802 -1.17688,1.5571 -1.02297,1.76531 -1.02297,3.92895 0,2.16364 1.08634,3.40388 1.0954,1.23119 2.87882,1.23119 1.40319,0 2.9784,-0.75139 1.5752,-0.76044 3.06892,-2.19985 v 1.00487 q -3.80221,3.594 -7.12462,3.594 -2.78828,0 -4.0919,-2.41712 -0.74233,-1.4032 -0.74233,-3.17756 0,-2.54386 1.40319,-4.91572 0.95056,-1.62046 2.57102,-2.66155 1.68384,-1.08634 3.938,-1.08634 1.34888,0 2.29944,0.93245 0.95055,0.93244 0.95055,2.14553 0,0.52507 -0.40738,0.73328 -0.40738,0.19916 -2.00974,1.07729 -2.24512,1.2493 -2.42617,1.2493 -0.35307,0 -0.35307,-0.37117 0,-0.44359 1.60236,-1.14066 0.60655,-0.26253 1.10446,-0.6156 0.50696,-0.35306 0.50696,-0.66991 z"
         style="font-size:18.5403px;fill:#ffffff;fill-opacity:1;stroke-width:0.264583px"
         id="path2017" />
      <path
         d="m 133.65541,286.9584 q -1.08635,0 -1.33983,-1.52994 -0.0543,-0.37117 -0.0543,-0.7695 0,-0.98676 0.48886,-1.99163 0.48885,-1.00487 1.28551,-1.79247 0.8057,-0.7876 1.91921,-1.28551 1.12255,-0.49791 2.29038,-0.49791 0.57033,0 1.52088,0.29875 -0.009,0.0634 -0.18106,0.83286 -0.172,0.76044 -0.34401,1.5571 -0.47075,2.18174 -0.47075,2.70681 0,0.52507 0.27159,0.52507 0.59749,0 2.77018,-2.29944 v 1.01393 q -1.37604,1.4213 -2.62533,2.32659 -1.24025,0.90529 -1.65668,0.90529 -0.68802,0 -0.68802,-1.18593 0,-0.38928 0.0724,-0.87813 -0.6518,0.85097 -1.52088,1.45751 -0.86003,0.60655 -1.73815,0.60655 z m 0.53412,-2.8064 q 0,1.35793 0.88718,1.35793 0.38022,0 0.93244,-0.39832 0.56128,-0.39833 1.01393,-0.87813 l 1.04108,-4.45402 q -0.97771,0 -1.89205,0.69707 -0.91434,0.69707 -1.44846,1.711 -0.53412,1.01392 -0.53412,1.96447 z"
         style="font-size:18.5403px;fill:#ffffff;fill-opacity:1;stroke-width:0.264583px"
         id="path2019" />
      <path
         d="m 149.37121,282.74881 v 1.01392 q -1.43941,1.46657 -2.55292,2.33564 -1.10445,0.86003 -1.47562,0.86003 -0.67896,0 -0.67896,-0.76045 0,-0.76044 0.33496,-1.81057 0.344,-1.05919 0.67896,-1.91016 0.34401,-0.86002 0.34401,-1.14972 0,-0.28969 -0.10863,-0.42548 -0.0996,-0.1358 -0.24443,-0.1358 -0.51602,0 -1.11351,0.72424 -0.59749,0.71517 -1.06824,1.73815 -0.97771,2.11837 -1.2855,3.46725 h -1.72911 q 0.009,-0.97771 0.55223,-3.24093 0.54317,-2.26322 0.96866,-3.34051 0.172,-0.43454 0.48885,-0.57939 0.32591,-0.14484 0.86908,-0.14484 h 0.60654 q -0.66086,2.28132 -0.97771,3.28619 0.60655,-1.13161 1.75626,-2.29943 0.56128,-0.56128 1.22214,-0.92339 0.66086,-0.36212 1.2493,-0.36212 0.88718,0 0.88718,1.05919 0,0.50696 -0.64275,2.40807 -0.63371,1.89205 -0.63371,2.09121 0,0.19011 0.10864,0.19011 0.11769,0 0.29874,-0.11769 0.19011,-0.12674 1.0773,-0.96865 0.88718,-0.85098 1.06824,-1.00487 z"
         style="font-size:18.5403px;fill:#ffffff;fill-opacity:1;stroke-width:0.264583px"
         id="path2021" />
      <path
         d="m 150.37608,284.89434 q 0,0.59749 0.31685,0.59749 0.19916,0 1.2493,-1.03203 1.05918,-1.04108 1.68383,-1.7291 v 1.01392 q -1.78342,1.75626 -2.38996,2.26322 -1.10445,0.91434 -1.89205,0.95056 -0.39833,0 -0.59749,-0.35307 -0.19916,-0.36211 -0.19916,-0.92339 0,-0.56128 0.50696,-2.63439 0.50696,-2.07311 0.66991,-2.50765 0.172,-0.43454 0.28064,-0.60654 0.10863,-0.17201 0.27159,-0.27159 0.16295,-0.0996 0.28064,-0.1539 0.12674,-0.0634 0.38022,-0.0905 0.35306,-0.0272 0.86907,-0.0272 -1.43035,4.58075 -1.43035,5.50415 z m 1.55709,-7.91222 q -0.64275,0 -0.64275,-0.65181 0,-0.45264 0.33496,-0.86907 0.344,-0.42549 0.8057,-0.42549 0.4617,0 0.68802,0.18106 0.22632,0.18106 0.22632,0.55222 0,0.36212 -0.43454,0.78761 -0.42548,0.42548 -0.97771,0.42548 z"
         style="font-size:18.5403px;fill:#ffffff;fill-opacity:1;stroke-width:0.264583px"
         id="path2023" />
      <path
         d="m 157.42827,284.54128 q -0.97771,1.14066 -1.96447,1.78341 -0.98677,0.63371 -1.48468,0.63371 -0.48885,0 -0.75139,-0.19012 -0.26253,-0.18105 -0.38927,-0.48885 -0.21727,-0.56128 -0.21727,-1.37604 0,-0.81476 0.44359,-1.883 0.44359,-1.07729 1.13161,-1.93731 0.68802,-0.86003 1.56615,-1.42131 0.88718,-0.57033 1.56615,-0.57033 0.67896,0 1.32172,0.19011 l 1.20403,-4.30012 q 0.25348,-1.04108 0.49791,-1.21308 0.33496,-0.24443 0.67897,-0.26254 0.35306,-0.0272 0.75139,-0.0272 h 0.31685 q -0.0362,0.30779 -0.31685,1.25835 -0.56128,1.67478 -1.5571,5.28688 -0.98676,3.60305 -0.98676,4.30012 0,0.33495 0.0634,0.45264 0.0634,0.11769 0.23537,0.11769 0.18106,0 0.73329,-0.52507 0.56127,-0.52507 1.63857,-1.65668 v 1.01393 q -0.12674,0.12674 -0.47075,0.47075 -0.33496,0.34401 -0.49791,0.50696 l -0.4798,0.47075 q -0.3078,0.31685 -0.49791,0.4798 -0.18106,0.16295 -0.45265,0.40738 -0.27158,0.24443 -0.45264,0.38022 -0.18106,0.12674 -0.38927,0.26253 -0.38928,0.25349 -0.65181,0.25349 -0.74234,0 -0.74234,-1.20404 0,-0.57938 0.1539,-1.21308 z m 1.05013,-4.46307 q -0.0362,-0.12674 -0.3259,-0.23538 -0.28064,-0.11769 -0.52507,-0.11769 -0.77854,0 -1.51183,0.71518 -0.73328,0.71518 -1.15877,1.73815 -0.42548,1.01393 -0.42548,1.93732 0,1.14972 0.74233,1.14972 0.57939,0 1.44847,-0.65181 0.86907,-0.66086 0.9596,-1.03203 z"
         style="font-size:18.5403px;fill:#ffffff;fill-opacity:1;stroke-width:0.264583px"
         id="path2025" />
      <path
         d="m 163.53897,281.58098 q 0.68802,0.88719 1.52088,0.88719 0.52507,0 0.90529,-0.51602 0.38927,-0.51601 0.38927,-1.08634 0,-0.57034 -0.21727,-0.76045 -0.20821,-0.19916 -0.61559,-0.19916 -0.39833,0 -0.75139,0.18106 -0.34401,0.18106 -0.58844,0.45264 -0.47075,0.53412 -0.64275,1.04108 z m 4.97003,1.14972 v 0.99582 q -1.43941,1.58425 -2.57102,2.40806 -1.13161,0.82382 -2.15459,0.82382 -2.04595,0 -2.55291,-1.33078 -0.19011,-0.52507 -0.19011,-1.2674 0,-1.32172 0.55223,-2.5167 0.55222,-1.20404 1.58425,-1.97353 1.04108,-0.77855 2.30849,-0.77855 2.13648,0 2.13648,1.59331 0,1.03203 -0.83287,1.80152 -0.83286,0.76044 -1.87395,0.76044 -0.41643,0 -0.86907,-0.24442 -0.45265,-0.24443 -0.7695,-0.73329 -0.38927,0.81476 -0.38927,1.59331 0,2.09122 1.52088,2.09122 0.39833,0 0.97771,-0.38023 0.58844,-0.38022 1.03203,-0.79665 0.45265,-0.42548 1.14067,-1.1135 0.68801,-0.69708 0.95055,-0.93245 z"
         style="font-size:18.5403px;fill:#ffffff;fill-opacity:1;stroke-width:0.264583px"
         id="path2027" />
      <path
         d="m 168.69911,286.9584 q -1.08635,0 -1.33983,-1.52994 -0.0543,-0.37117 -0.0543,-0.7695 0,-0.98676 0.48886,-1.99163 0.48885,-1.00487 1.28551,-1.79247 0.8057,-0.7876 1.91921,-1.28551 1.12256,-0.49791 2.29038,-0.49791 0.57033,0 1.52088,0.29875 -0.009,0.0634 -0.18106,0.83286 -0.172,0.76044 -0.34401,1.5571 -0.47075,2.18174 -0.47075,2.70681 0,0.52507 0.27159,0.52507 0.59749,0 2.77018,-2.29944 v 1.01393 q -1.37604,1.4213 -2.62533,2.32659 -1.24025,0.90529 -1.65668,0.90529 -0.68802,0 -0.68802,-1.18593 0,-0.38928 0.0724,-0.87813 -0.6518,0.85097 -1.52088,1.45751 -0.86002,0.60655 -1.73815,0.60655 z m 0.53412,-2.8064 q 0,1.35793 0.88718,1.35793 0.38022,0 0.93245,-0.39832 0.56127,-0.39833 1.01392,-0.87813 l 1.04108,-4.45402 q -0.97771,0 -1.89205,0.69707 -0.91434,0.69707 -1.44846,1.711 -0.53412,1.01392 -0.53412,1.96447 z"
         style="font-size:18.5403px;fill:#ffffff;fill-opacity:1;stroke-width:0.264583px"
         id="path2029" />
    </g>
  </g>
</svg>
