<svg viewBox="0 0 32 32" xmlns="http://www.w3.org/2000/svg"><path d="M16.0005 31.6255c-8.615 0-15.625-7.01-15.625-15.625S7.3855.3755 16.0005.3755s15.625 7.01 15.625 15.625-7.01 15.625-15.625 15.625z" fill="#fff"/><path d="M16 .75C24.409.75 31.25 7.591 31.25 16c0 8.409-6.841 15.25-15.25 15.25C7.591 31.25.75 24.409.75 16 .75 7.591 7.591.75 16 .75M16 0C7.1635 0 0 7.1635 0 16c0 8.8365 7.1635 16 16 16 8.8365 0 16-7.1635 16-16 0-8.8365-7.1635-16-16-16z" fill="#e5e5e5"/><path d="M15.244 15.8285c-.48-.4445-1.0135-1.0675-1.245-1.6195-.0355-.071-.1065-.2495 0-.3915.213-.285.2485-.3025.48-.569.1605-.196.284-.3735.2315-.5335l-.8005-2.082c-.071-.142-.284-.1605-.5335-.1775-.213 0-.4445 0-.6045.0355-.356.125-1.0845 1.0855-1.174 1.7795-.196 1.5115 1.174 3.5225 2.5425 4.7685 1.3695 1.263 3.486 2.4555 4.9795 2.1175.694-.1605 1.5825-.961 1.6535-1.334.0355-.1605.0185-.3905-.0185-.6045-.017-.2485-.071-.427-.214-.498l-1.813-.837c-.1605-.0895-.3205-.0185-.48.1785-.196.267-.285.3735-.5155.6585-.125.1605-.213.267-.355.284-.1605.0355-.3735-.054-.409-.054-.569-.1965-1.226-.6775-1.7245-1.1215zM9.2695 22.216l1.032-2.6155c-1.1385-1.317-1.831-3.0425-1.831-4.929 0-4.163 3.3785-7.526 7.54-7.526 4.1605 0 7.522 3.3635 7.522 7.526 0 4.164-3.361 7.5435-7.522 7.5435-1.672 0-3.201-.5335-4.4455-1.459zm-1.263-2.563L6.584 25.347l5.086-2.313c1.2985.6755 2.7735 1.0675 4.339 1.0675 5.1925 0 9.407-4.2165 9.407-9.4295 0-5.1945-4.2145-9.411-9.407-9.411-5.2105 0-9.425 4.2165-9.425 9.411 0 1.832.5335 3.5405 1.4225 4.981z" fill="#333" stroke-width="2"/></svg>
