<?xml version="1.0" encoding="UTF-8" standalone="no"?>
<svg
   xmlns:dc="http://purl.org/dc/elements/1.1/"
   xmlns:cc="http://creativecommons.org/ns#"
   xmlns:rdf="http://www.w3.org/1999/02/22-rdf-syntax-ns#"
   xmlns:svg="http://www.w3.org/2000/svg"
   xmlns="http://www.w3.org/2000/svg"
   xmlns:sodipodi="http://sodipodi.sourceforge.net/DTD/sodipodi-0.dtd"
   xmlns:inkscape="http://www.inkscape.org/namespaces/inkscape"
   viewBox="0 0 64 64"
   version="1.1"
   id="svg10"
   sodipodi:docname="whatsapp-nobg.svg"
   inkscape:version="1.0.2 (e86c870879, 2021-01-15)">
  <metadata
     id="metadata16">
    <rdf:RDF>
      <cc:Work
         rdf:about="">
        <dc:format>image/svg+xml</dc:format>
        <dc:type
           rdf:resource="http://purl.org/dc/dcmitype/StillImage" />
      </cc:Work>
    </rdf:RDF>
  </metadata>
  <defs
     id="defs14" />
  <sodipodi:namedview
     pagecolor="#ffffff"
     bordercolor="#666666"
     borderopacity="1"
     objecttolerance="10"
     gridtolerance="10"
     guidetolerance="10"
     inkscape:pageopacity="0"
     inkscape:pageshadow="2"
     inkscape:window-width="939"
     inkscape:window-height="1030"
     id="namedview12"
     showgrid="false"
     inkscape:zoom="5.7421875"
     inkscape:cx="31.30767"
     inkscape:cy="25.840374"
     inkscape:window-x="10"
     inkscape:window-y="34"
     inkscape:window-maximized="0"
     inkscape:current-layer="svg10" />
  <g
     id="g8"
     style="fill:#ffffff">
    <path
       d="M30.488 31.657c-.96-.889-2.027-2.135-2.49-3.239-.071-.142-.213-.499 0-.783.426-.57.497-.605.96-1.138.321-.392.568-.747.463-1.067l-1.601-4.164c-.142-.284-.568-.321-1.067-.355-.426 0-.889 0-1.209.071-.712.25-2.169 2.171-2.348 3.559-.392 3.023 2.348 7.045 5.085 9.537 2.739 2.526 6.972 4.911 9.959 4.235 1.388-.321 3.165-1.922 3.307-2.668.071-.321.037-.781-.037-1.209-.034-.497-.142-.854-.428-.996l-3.626-1.674c-.321-.179-.641-.037-.96.357-.392.534-.57.747-1.031 1.317-.25.321-.426.534-.71.568-.321.071-.747-.108-.818-.108-1.138-.393-2.452-1.355-3.449-2.243zM18.539 44.432l2.064-5.231c-2.277-2.634-3.662-6.085-3.662-9.858 0-8.326 6.757-15.052 15.08-15.052 8.321 0 15.044 6.727 15.044 15.052 0 8.328-6.722 15.087-15.044 15.087-3.344 0-6.402-1.067-8.891-2.918l-4.591 2.92zm-2.526-5.126l-2.845 11.388 10.172-4.626c2.597 1.351 5.547 2.135 8.678 2.135 10.385 0 18.814-8.433 18.814-18.859 0-10.389-8.429-18.822-18.814-18.822-10.421 0-18.85 8.433-18.85 18.822 0 3.664 1.067 7.081 2.845 9.962z"
       fill="#333"
       id="path6"
       style="fill:#ffffff" />
  </g>
</svg>
